<?xml version="1.0" encoding="UTF-8" standalone="no"?>
<svg
   xmlns:dc="http://purl.org/dc/elements/1.1/"
   xmlns:cc="http://creativecommons.org/ns#"
   xmlns:rdf="http://www.w3.org/1999/02/22-rdf-syntax-ns#"
   xmlns:svg="http://www.w3.org/2000/svg"
   xmlns="http://www.w3.org/2000/svg"
   version="1.1"
   id="svg5308"
   viewBox="0 0 274.47129 188.64451"
   height="28px"
   width="50px">
  <defs
     id="defs5310" />
  <metadata
     id="metadata5313">
    <rdf:RDF>
      <cc:Work
         rdf:about="">
        <dc:format>image/svg+xml</dc:format>
        <dc:type
           rdf:resource="http://purl.org/dc/dcmitype/StillImage" />
        <dc:title></dc:title>
      </cc:Work>
    </rdf:RDF>
  </metadata>
  <g
     transform="translate(-146.08539,-335.5863)"
     id="layer1">
    <path
       id="path5297"
       d="m 270.72478,523.67204 c -0.7425,-0.0608 -2.6325,-0.26036 -4.2,-0.4434 -4.37391,-0.51074 -11.22195,-2.42652 -10.59459,-2.9639 0.13452,-0.11522 1.72959,-0.0999 3.54459,0.034 15.15675,1.11837 42.17322,-5.16506 59.60577,-13.86298 15.78168,-7.87423 30.55983,-20.68472 42.70254,-37.01681 20.47419,-27.53808 35.97936,-67.8533 42.86877,-111.46388 1.18527,-7.50299 1.20594,-7.76778 0.62379,-7.99118 -0.45498,-0.17459 -28.7757,1.97594 -40.35087,3.06403 -21.49779,2.02083 -44.33307,7.58236 -61.2,14.90524 -9.09456,3.94846 -21.4455,10.76741 -20.68332,11.41929 0.0733,0.0627 5.53332,0.26732 12.13332,0.45467 18.54603,0.52646 20.78367,0.78634 58.47927,6.79171 6.75357,1.07594 12.38982,1.95624 12.525,1.95624 0.53421,0 0.16101,1.12122 -1.87782,5.6417 -8.66568,19.21337 -21.80934,40.99879 -35.05818,58.1083 -26.37063,34.05502 -56.12538,55.6304 -87.26511,63.27657 -10.63442,2.61122 -16.12418,3.2115 -31.03781,3.3938 -19.11654,0.23368 -27.35835,-0.65857 -37.99293,-4.11309 -6.40608,-2.08094 -9.98571,-4.14671 -16.31244,-9.41375 -4.29489,-3.57551 -6.1749,-5.67798 -7.70211,-8.61347 -1.8156,-3.48984 -2.51256,-6.82506 -2.31537,-11.08006 0.3753,-8.09764 4.07556,-20.47323 9.37353,-31.35 6.96816,-14.30558 16.54284,-26.4297 29.19498,-36.9687 1.91895,-1.59845 4.5015,-3.80562 5.739,-4.90483 20.82924,-18.5015 49.86036,-29.80632 83.0321,-32.333 l 3.68211,-0.28047 1.56789,-1.50185 c 2.30766,-2.21045 4.99092,-4.41436 9.3588,-7.68684 19.89822,-14.9081 46.39617,-25.05781 77.55909,-29.70804 7.04856,-1.05181 11.47665,-1.49061 30.6,-3.03236 9.3225,-0.7516 18.0975,-1.4857 19.5,-1.63135 3.80973,-0.39563 3.96531,-0.38648 3.7848,0.22244 -0.0856,0.28875 -0.43704,2.7525 -0.78099,5.475 -3.96936,31.4205 -13.14219,65.29434 -24.81828,91.65 -17.82315,40.23112 -42.21348,67.05878 -72.15654,79.3671 -10.58841,4.35244 -27.20202,8.75485 -37.76454,10.00714 -3.8667,0.45844 -11.4288,0.78408 -13.76445,0.59273 z m -59.09999,-9.12395 c 14.35509,-0.58845 23.36907,-2.15547 35.33114,-6.14207 15.84462,-5.28053 30.26799,-13.60795 45.66885,-26.36718 4.99005,-4.13412 17.68803,-16.68847 22.03299,-21.78377 14.44734,-16.9422 26.34375,-34.94437 36.23958,-54.83934 2.87364,-5.77728 3.26925,-6.74742 2.90148,-7.11518 -0.37683,-0.37682 -30.35805,-5.28978 -41.97405,-6.87819 -19.82274,-2.71063 -41.97582,-2.8777 -60.3,-0.45476 -43.79168,5.79043 -76.71254,27.60612 -94.37186,62.53747 -4.11765,8.145 -7.56264,17.55752 -8.67426,23.7 -0.23886,1.32 -0.65328,3.4125 -0.92091,4.65 -0.35181,1.62665 -0.45174,3.24737 -0.36072,5.85 0.14049,4.01753 0.84558,6.56819 2.68152,9.70038 1.23288,2.10335 5.50212,6.44094 7.84635,7.97201 8.06802,5.26935 20.34381,8.35508 36.40854,9.1519 7.01715,0.34805 9.3957,0.35059 17.49135,0.0188 z m 9.3,-26.72383 c -3.05592,-0.34357 -7.89087,-1.32433 -11.37078,-2.30653 l -2.87922,-0.81266 7.35,-0.18705 c 4.0425,-0.10288 8.43,-0.34941 9.75,-0.54784 17.98856,-2.70417 34.67732,-10.00259 50.92205,-22.26953 12.09951,-9.13673 24.61863,-22.04171 35.16186,-36.24558 1.77591,-2.3925 3.37023,-4.485 3.54294,-4.65 0.49044,-0.46856 -2.35659,4.73285 -4.67994,8.55 -13.15173,21.60772 -28.82235,38.41821 -44.89692,48.16265 -6.69264,4.05711 -15.48477,7.68787 -22.12521,9.13676 -6.35189,1.38593 -14.68091,1.85492 -20.77478,1.16978 z"
       style="fill:#ffffff;stroke:#ffffff" />
  </g>
</svg>
