<?xml version="1.0" encoding="UTF-8" standalone="no"?>
<!-- Created with Inkscape (http://www.inkscape.org/) -->

<svg
   xmlns:dc="http://purl.org/dc/elements/1.1/"
   xmlns:cc="http://creativecommons.org/ns#"
   xmlns:rdf="http://www.w3.org/1999/02/22-rdf-syntax-ns#"
   xmlns:svg="http://www.w3.org/2000/svg"
   xmlns="http://www.w3.org/2000/svg"
   xmlns:sodipodi="http://sodipodi.sourceforge.net/DTD/sodipodi-0.dtd"
   xmlns:inkscape="http://www.inkscape.org/namespaces/inkscape"
   width="320px"
   height="120px"
   viewBox="0 0 830.79997 305.72356"
   id="svg5308"
   version="1.1"
   inkscape:version="0.91 r13725"
   sodipodi:docname="logo_white.svg"
   inkscape:export-filename="/Users/bennyfrancodennis/Documents/Alinsumos/Logos/white.png"
   inkscape:export-xdpi="27.082331"
   inkscape:export-ydpi="27.082331">
  <defs
     id="defs5310" />
  <sodipodi:namedview
     id="base"
     pagecolor="#000000"
     bordercolor="#666666"
     borderopacity="1.0"
     inkscape:pageopacity="0"
     inkscape:pageshadow="2"
     inkscape:zoom="0.35"
     inkscape:cx="-181.02858"
     inkscape:cy="61.433202"
     inkscape:document-units="px"
     inkscape:current-layer="layer1"
     showgrid="false"
     fit-margin-top="0"
     fit-margin-left="0"
     fit-margin-right="0"
     fit-margin-bottom="0"
     inkscape:window-width="1280"
     inkscape:window-height="702"
     inkscape:window-x="0"
     inkscape:window-y="0"
     inkscape:window-maximized="1" />
  <metadata
     id="metadata5313">
    <rdf:RDF>
      <cc:Work
         rdf:about="">
        <dc:format>image/svg+xml</dc:format>
        <dc:type
           rdf:resource="http://purl.org/dc/dcmitype/StillImage" />
        <dc:title></dc:title>
      </cc:Work>
    </rdf:RDF>
  </metadata>
  <g
     inkscape:label="Capa 1"
     inkscape:groupmode="layer"
     id="layer1"
     transform="translate(32.542849,-288.07186)">
    <path
       style="fill:#ffffff;stroke:#ffffff"
       d="m 320.45715,593.137 c -9.35469,-0.95889 -18.58962,-3.56883 -29.20674,-8.25437 l -4.15677,-1.83445 0.1512,-0.93162 c 0.20811,-1.28256 8.35008,-19.02623 8.81178,-19.2034 0.20472,-0.0786 1.85511,0.58494 3.66753,1.47444 6.91899,3.39571 13.55091,5.62792 19.72659,6.63967 4.5942,0.75266 12.48555,0.75772 14.95641,0.01 3.98781,-1.20743 6.15,-3.47947 6.15,-6.46248 0,-1.9108 -0.50892,-2.95224 -2.1141,-4.32622 -2.39673,-2.05151 -5.02794,-3.08146 -16.60629,-6.50028 -9.99303,-2.95072 -19.57494,-7.33756 -24.00069,-10.98813 -3.41742,-2.81886 -5.86341,-6.93973 -7.15608,-12.05633 -0.56496,-2.23617 -0.65859,-3.41278 -0.64956,-8.16278 0.009,-4.74685 0.10521,-5.89732 0.66453,-7.95 2.34651,-8.61184 8.89998,-14.82973 18.9561,-17.98545 8.07024,-2.53253 20.43054,-2.96344 30.30609,-1.05654 6.38682,1.23325 11.09877,2.59186 17.08932,4.9274 4.93137,1.9226 6.01068,2.45369 6.01068,2.95766 0,0.63246 -7.18878,19.22481 -7.5825,19.61063 -0.28689,0.28114 -1.28862,-0.0355 -4.5675,-1.44371 -5.17371,-2.22202 -10.1076,-3.88609 -14.25,-4.80614 -2.7333,-0.60708 -3.96357,-0.69991 -9.3,-0.70174 -5.04978,-0.002 -6.45837,0.0932 -7.87365,0.53088 -2.92266,0.90374 -4.72635,2.9921 -4.72635,5.47227 0,3.20913 3.09192,5.21476 13.65,8.85438 12.27492,4.23144 24.63855,9.69104 28.36626,12.52612 3.74334,2.84696 6.00348,5.97342 7.5393,10.42914 1.57875,4.58028 1.74378,12.72197 0.37299,18.40107 -0.26337,1.09121 -1.13358,3.34449 -1.93377,5.00727 -2.98536,6.20362 -8.44164,10.52798 -16.76574,13.28764 -3.3225,1.10148 -7.66443,1.9785 -11.98584,2.421 -2.87472,0.29436 -11.10918,0.36396 -13.5432,0.11448 z m 85.04999,-0.008 c -2.35962,-0.32025 -6.02478,-1.36746 -8.45901,-2.41692 -3.06306,-1.32057 -7.88547,-4.39082 -10.22904,-6.51245 -5.11448,-4.63016 -8.34557,-12.89223 -9.33047,-23.85859 -0.35298,-3.93032 -0.83139,-61.56259 -0.52128,-62.79814 l 0.20292,-0.80858 12.21845,0.0784 12.21843,0.0784 0.16752,29.25 c 0.18459,32.22959 0.0948,30.71753 2.11452,35.59126 0.75909,1.83168 1.38426,2.76681 2.79774,4.18499 2.38683,2.39475 4.2798,3.14622 8.43789,3.34965 10.18635,0.49838 16.00365,-4.33854 17.89653,-14.88051 0.18168,-1.0117 0.38133,-12.94657 0.49512,-29.59539 l 0.19068,-27.9 12.15,0 12.15,0 0,47.4 0,47.4 -12.15,0 -12.15,0 -0.0872,-2.84721 c -0.048,-1.56597 -0.21129,-2.97129 -0.36294,-3.12294 -0.16761,-0.16762 -1.25076,0.31823 -2.76279,1.2393 -5.33004,3.24687 -10.3056,5.15922 -15.4347,5.93232 -2.72757,0.41112 -7.41129,0.52707 -9.55236,0.23649 z m 345.75,-0.10581 c -5.69736,-0.70239 -12.14922,-2.22939 -18.21153,-4.31022 -4.89852,-1.68135 -12.95526,-5.11229 -13.66692,-5.82 -0.5043,-0.5015 -0.32862,-0.95695 3.84351,-9.96373 2.40459,-5.19101 4.54779,-9.61753 4.76265,-9.8367 0.32394,-0.33038 0.87201,-0.15637 3.20649,1.01804 6.49176,3.26578 14.20728,5.90665 20.2158,6.91945 4.13118,0.69636 12.54372,0.72735 14.92509,0.055 4.54275,-1.28262 7.02447,-4.33405 6.26694,-7.70563 -0.77925,-3.46811 -4.54638,-5.53947 -16.14594,-8.87787 -10.76688,-3.09874 -19.02084,-6.56622 -24.69933,-10.37614 -2.0121,-1.35001 -5.26425,-4.74359 -6.39507,-6.67322 -1.10076,-1.87827 -2.23128,-4.92702 -2.73531,-7.37649 -1.02273,-4.96993 -0.81279,-12.26018 0.474,-16.4618 3.02319,-9.87121 11.78409,-16.29603 25.31859,-18.56743 4.57299,-0.76744 15.95022,-0.77653 20.69103,-0.0165 4.62402,0.74129 9.45807,1.85708 13.41813,3.09716 4.41399,1.38224 12.45495,4.58009 12.62247,5.0199 0.1386,0.36394 -7.14132,19.65661 -7.5876,20.10804 -0.14967,0.1514 -1.77336,-0.40997 -3.807,-1.31622 -6.88794,-3.06948 -13.18824,-5.01254 -18.53826,-5.71733 -3.83106,-0.5047 -11.80536,-0.2203 -13.93614,0.49702 -4.26714,1.43649 -5.82534,5.72013 -3.07896,8.46428 1.64262,1.64128 4.59543,3.04855 11.45736,5.46043 9.35034,3.28653 18.91635,7.20029 24.75,10.12605 6.78459,3.40268 10.86024,8.33385 12.61926,15.26811 0.5991,2.36168 0.73074,3.62321 0.73074,7.00285 0,8.17041 -1.82673,14.10686 -5.83689,18.96857 -4.13208,5.00949 -12.6531,9.08616 -22.15203,10.5981 -3.60819,0.57429 -15.12801,0.83337 -18.51108,0.41631 z m -90.45,-0.45921 c -7.296,-1.28664 -14.44968,-4.9934 -20.21172,-10.47294 -9.91614,-9.43001 -14.74962,-22.41083 -14.75286,-39.62048 -0.003,-17.20634 4.46877,-28.61839 14.84157,-37.87383 5.47287,-4.88332 11.66742,-8.03769 18.77301,-9.55954 3.59502,-0.76997 12.87036,-0.7581 16.48422,0.0211 8.61735,1.85802 16.90629,6.47394 22.90314,12.7542 6.06057,6.34702 9.76635,15.17304 11.03727,26.28728 0.55821,4.88147 0.46836,17.04904 -0.1572,21.29127 -1.99551,13.53227 -7.01034,22.6224 -16.36743,29.66834 -5.07207,3.81931 -11.36988,6.54016 -17.4,7.51738 -3.58512,0.58101 -11.82228,0.57405 -15.15,-0.0129 z m 10.7895,-23.98282 c 2.67684,-0.69722 4.51776,-1.85046 6.7158,-4.20707 3.39894,-3.64416 5.90082,-9.28046 6.66885,-15.0237 0.56589,-4.23181 0.2004,-11.86064 -0.74547,-15.55935 -2.21268,-8.65247 -6.9621,-13.63198 -13.92744,-14.60215 -8.97213,-1.24969 -16.11864,4.30147 -18.67587,14.50678 -0.79182,3.15989 -1.12638,11.98257 -0.60342,15.91239 1.3902,10.44672 6.10458,17.25939 13.11828,18.95704 2.35662,0.57042 5.29665,0.57676 7.44927,0.0161 z m -703.639489,23.14728 c 0,-0.18054 48.36548,-125.42942 51.32102,-132.90265 1.642,-4.15188 2.08689,-4.98354 3.45837,-6.4649 2.47202,-2.67008 5.66482,-3.9253 9.96037,-3.91582 6.19189,0.0137 11.02498,3.03016 13.23349,8.25951 2.2792,5.3967 51.292209,134.64925 51.147959,134.88262 -0.0861,0.13941 -6.760539,0.25344 -14.831999,0.25344 l -14.67538,0 -0.42815,-0.675 c -0.30817,-0.48585 -10.26061,-24.38953 -11.80443,-28.35177 -0.11647,-0.29891 -5.1394,-0.3609 -24.30684,-0.3 l -24.1600296,0.0768 -4.58789,14.32242 c -2.52334997,7.87734 -4.67205,14.45859 -4.7749,14.625 -0.17439,0.28215 -29.5515904,0.47139 -29.5515904,0.19035 z m 78.89359,-55.6128 c -0.0141,-1.15307 -15.19097,-44.025 -15.58509,-44.025 -0.47946,0 0.0435,-1.46404 -8.2871,23.19837 -3.69677,10.9441 -6.7214,20.14971 -6.7214,20.45689 0,0.77789 0.16672,0.78646 16.425,0.84431 13.32141,0.0474 14.17461,0.0188 14.16859,-0.47457 z m 62.309769,55.52835 c -0.11185,-0.11184 -0.20336,-27.21709 -0.20336,-60.23388 l 0,-60.03054 3.11665,-3.44447 c 4.68199,-5.17445 9.95922,-9.65573 13.28955,-11.2851 2.37063,-1.15984 4.70073,-1.29854 6.06332,-0.36092 0.56073,0.38586 1.26978,1.17251 1.57566,1.74811 0.53736,1.01121 0.55359,3.28611 0.48048,67.35 l -0.0757,66.30345 -12.02164,0.0784 c -6.61191,0.0431 -12.11316,-0.0132 -12.225,-0.12501 z m 41.50901,-0.38022 c -0.34168,-0.63846 -0.36586,-41.3417 -0.0447,-75.17313 l 0.18229,-19.2 12.15,0 12.15,0 0,47.4 0,47.4 -12.06263,0.0784 c -11.68526,0.0759 -12.0724,0.0601 -12.375,-0.50526 z m 42.05098,0.22023 c -0.28122,-0.28122 -0.36335,-10.48586 -0.36335,-45.14645 l 0,-44.78308 0.72415,-0.47449 c 1.18861,-0.7788 9.40519,-4.48134 12.56184,-5.66058 5.78668,-2.16176 9.70104,-2.7168 10.98244,-1.55727 0.57404,0.51944 0.63157,0.89357 0.63157,4.1073 0,1.97935 0.12909,3.61558 0.29325,3.71704 0.16129,0.0997 1.04003,-0.29647 1.95276,-0.88034 2.49323,-1.5949 5.98776,-3.28457 8.96763,-4.33603 7.38813,-2.60691 17.58595,-2.48816 24.78642,0.28863 6.83022,2.63402 13.65105,8.68089 16.73028,14.83191 1.27884,2.55457 2.65776,6.60048 3.40491,9.9903 0.6222,2.82295 0.65037,3.89942 0.94506,36.10877 0.16707,18.2595 0.22101,33.41479 0.11985,33.67843 -0.165,0.42993 -1.42875,0.47124 -12.26706,0.40092 l -12.0831,-0.0784 -0.15,-30.3 -0.15,-30.3 -0.71976,-1.8 c -1.45757,-3.64512 -4.12245,-7.04147 -6.95446,-8.86333 -4.43628,-2.8539 -11.26366,-3.09347 -16.39054,-0.57514 -3.34408,1.64262 -6.55781,5.5937 -7.92108,9.73847 -0.31131,0.94648 -0.42844,7.63305 -0.55443,31.65 l -0.15973,30.45 -12.01165,0.0784 c -9.09219,0.0593 -12.09997,-0.01 -12.375,-0.285 z m 283.00131,-0.015 c -0.32154,-1.02147 -0.46392,-14.85782 -0.51873,-50.40365 -0.0589,-38.21296 -0.0494,-38.9331 0.52203,-39.35545 1.09689,-0.81078 11.08047,-5.81898 14.04717,-7.04666 3.61818,-1.49728 5.94765,-2.12266 7.90668,-2.12266 2.316,0 2.47818,0.32925 2.47818,5.03091 0,2.2385 0.12636,4.01178 0.29325,4.11492 0.16128,0.0997 1.04004,-0.29647 1.95276,-0.88034 4.09218,-2.61773 8.91336,-4.60437 13.65399,-5.62633 3.76746,-0.81216 10.12095,-0.86901 13.95,-0.12481 6.00702,1.1675 12.13281,4.40329 17.29206,9.1341 0.93063,0.85335 1.79172,1.55155 1.91352,1.55155 0.1218,0 1.16769,-0.89264 2.32422,-1.98364 2.3769,-2.24225 6.20934,-4.84206 8.99475,-6.10176 4.84971,-2.19328 9.36762,-3.04557 16.12545,-3.04204 9.91146,0.005 17.8431,2.27064 23.68314,6.76447 5.65227,4.34932 9.85698,12.03421 11.57904,21.16297 0.58857,3.11995 0.98001,22.39508 1.01475,49.96766 0.018,14.21127 -0.061,18.43228 -0.35193,18.829 -0.34431,0.4695 -1.36902,0.50487 -12.525,0.43233 l -12.15,-0.079 -0.15081,-31.35 -0.15081,-31.35 -0.83331,-2.1 c -1.00977,-2.54473 -2.60589,-4.94296 -3.99474,-6.00229 -2.69073,-2.05232 -6.80052,-3.06329 -11.11731,-2.73475 -7.0455,0.53621 -11.2806,3.79736 -13.48911,10.38704 -0.52038,1.55272 -0.55836,3.45344 -0.64428,32.23898 -0.0703,23.57629 -0.17478,30.64204 -0.45546,30.82042 -0.6399,0.40665 -23.44227,0.2925 -23.85417,-0.1194 -0.27513,-0.27513 -0.36,-7.3427 -0.36,-29.98212 l 0,-29.62213 -0.79002,-2.19287 c -1.38792,-3.85259 -4.02156,-7.31815 -7.03419,-9.25621 -4.41834,-2.84235 -11.2644,-3.09302 -16.34328,-0.59841 -3.32307,1.63221 -6.62484,5.67711 -7.96833,9.76174 -0.31134,0.94648 -0.42846,7.63305 -0.55446,31.65 l -0.15972,30.45 -12.0831,0.0784 c -9.51654,0.0617 -12.10842,-0.003 -12.20223,-0.3 z M 158.69646,488.97931 c -3.83875,-1.2676 -6.73128,-3.88549 -8.56915,-7.75552 -0.98827,-2.08101 -1.11703,-2.63309 -1.22166,-5.23818 -0.14385,-3.58132 0.54488,-6.16818 2.36979,-8.90101 3.11015,-4.65749 7.70229,-6.63867 13.99937,-6.03973 5.3059,0.50466 10.13429,5.0573 11.45851,10.80411 0.39715,1.72352 0.39715,5.45979 0,7.18331 -0.92903,4.03178 -3.5824,7.48558 -7.07804,9.21321 -2.15582,1.06547 -2.40837,1.11845 -5.75148,1.20655 -2.79979,0.0738 -3.83758,-0.0204 -5.20734,-0.47274 z M 412.25714,476.1576 c -0.7425,-0.0608 -2.6325,-0.26036 -4.2,-0.4434 -4.37391,-0.51074 -11.22195,-2.42652 -10.59459,-2.9639 0.13452,-0.11522 1.72959,-0.0999 3.54459,0.034 15.15675,1.11837 42.17322,-5.16506 59.60577,-13.86298 15.78168,-7.87423 30.55983,-20.68472 42.70254,-37.01681 20.47419,-27.53808 35.97936,-67.8533 42.86877,-111.46388 1.18527,-7.50299 1.20594,-7.76778 0.62379,-7.99118 -0.45498,-0.17459 -28.7757,1.97594 -40.35087,3.06403 -21.49779,2.02083 -44.33307,7.58236 -61.2,14.90524 -9.09456,3.94846 -21.4455,10.76741 -20.68332,11.41929 0.0733,0.0627 5.53332,0.26732 12.13332,0.45467 18.54603,0.52646 20.78367,0.78634 58.47927,6.79171 6.75357,1.07594 12.38982,1.95624 12.525,1.95624 0.53421,0 0.16101,1.12122 -1.87782,5.6417 -8.66568,19.21337 -21.80934,40.99879 -35.05818,58.1083 -26.37063,34.05502 -56.12538,55.6304 -87.26511,63.27657 -10.63442,2.61122 -16.12418,3.2115 -31.03781,3.3938 -19.11654,0.23368 -27.35835,-0.65857 -37.99293,-4.11309 -6.40608,-2.08094 -9.98571,-4.14671 -16.31244,-9.41375 -4.29489,-3.57551 -6.1749,-5.67798 -7.70211,-8.61347 -1.8156,-3.48984 -2.51256,-6.82506 -2.31537,-11.08006 0.3753,-8.09764 4.07556,-20.47323 9.37353,-31.35 6.96816,-14.30558 16.54284,-26.4297 29.19498,-36.9687 1.91895,-1.59845 4.5015,-3.80562 5.739,-4.90483 20.82924,-18.5015 49.86036,-29.80632 83.0321,-32.333 l 3.68211,-0.28047 1.56789,-1.50185 c 2.30766,-2.21045 4.99092,-4.41436 9.3588,-7.68684 19.89822,-14.9081 46.39617,-25.05781 77.55909,-29.70804 7.04856,-1.05181 11.47665,-1.49061 30.6,-3.03236 9.3225,-0.7516 18.0975,-1.4857 19.5,-1.63135 3.80973,-0.39563 3.96531,-0.38648 3.7848,0.22244 -0.0856,0.28875 -0.43704,2.7525 -0.78099,5.475 -3.96936,31.4205 -13.14219,65.29434 -24.81828,91.65 -17.82315,40.23112 -42.21348,67.05878 -72.15654,79.3671 -10.58841,4.35244 -27.20202,8.75485 -37.76454,10.00714 -3.8667,0.45844 -11.4288,0.78408 -13.76445,0.59273 z m -59.09999,-9.12395 c 14.35509,-0.58845 23.36907,-2.15547 35.33114,-6.14207 15.84462,-5.28053 30.26799,-13.60795 45.66885,-26.36718 4.99005,-4.13412 17.68803,-16.68847 22.03299,-21.78377 14.44734,-16.9422 26.34375,-34.94437 36.23958,-54.83934 2.87364,-5.77728 3.26925,-6.74742 2.90148,-7.11518 -0.37683,-0.37682 -30.35805,-5.28978 -41.97405,-6.87819 -19.82274,-2.71063 -41.97582,-2.8777 -60.3,-0.45476 -43.79168,5.79043 -76.71254,27.60612 -94.37186,62.53747 -4.11765,8.145 -7.56264,17.55752 -8.67426,23.7 -0.23886,1.32 -0.65328,3.4125 -0.92091,4.65 -0.35181,1.62665 -0.45174,3.24737 -0.36072,5.85 0.14049,4.01753 0.84558,6.56819 2.68152,9.70038 1.23288,2.10335 5.50212,6.44094 7.84635,7.97201 8.06802,5.26935 20.34381,8.35508 36.40854,9.1519 7.01715,0.34805 9.3957,0.35059 17.49135,0.0188 z m 9.3,-26.72383 c -3.05592,-0.34357 -7.89087,-1.32433 -11.37078,-2.30653 l -2.87922,-0.81266 7.35,-0.18705 c 4.0425,-0.10288 8.43,-0.34941 9.75,-0.54784 17.98856,-2.70417 34.67732,-10.00259 50.92205,-22.26953 12.09951,-9.13673 24.61863,-22.04171 35.16186,-36.24558 1.77591,-2.3925 3.37023,-4.485 3.54294,-4.65 0.49044,-0.46856 -2.35659,4.73285 -4.67994,8.55 -13.15173,21.60772 -28.82235,38.41821 -44.89692,48.16265 -6.69264,4.05711 -15.48477,7.68787 -22.12521,9.13676 -6.35189,1.38593 -14.68091,1.85492 -20.77478,1.16978 z"
       id="path5297"
       inkscape:connector-curvature="0" />
  </g>
</svg>
